<?xml version="1.0" standalone="no"?>
<!DOCTYPE svg PUBLIC "-//W3C//DTD SVG 20010904//EN"
 "http://www.w3.org/TR/2001/REC-SVG-20010904/DTD/svg10.dtd">
<svg version="1.0" xmlns="http://www.w3.org/2000/svg"
 width="2268.000000pt" height="2268.000000pt" viewBox="0 0 2268.000000 2268.000000"
 preserveAspectRatio="xMidYMid meet">
<metadata>
Created by potrace 1.14, written by Peter Selinger 2001-2017
</metadata>
<g transform="translate(0.000000,2268.000000) scale(0.100000,-0.100000)"
fill="#000000" stroke="none">
<path d="M0 11350 c0 -4244 4 -7180 9 -7180 5 0 27 17 49 38 21 20 99 93 172
162 73 69 156 148 185 175 29 28 101 95 160 150 58 55 130 123 160 150 29 28
110 104 180 170 70 66 164 154 209 197 157 148 201 188 209 188 4 0 7 7 7 15
0 8 3 15 8 15 4 0 39 29 77 65 97 91 290 273 399 376 180 171 211 199 219 199
4 0 5 5 2 10 -3 6 -2 10 3 10 5 0 36 26 69 58 33 31 115 109 183 172 67 63
149 140 180 170 99 94 211 200 345 325 70 66 159 150 197 186 37 36 68 64 68
63 0 -1 37 34 82 77 45 43 82 79 84 79 1 0 39 36 84 80 45 44 83 80 85 80 3 0
176 165 269 255 l61 60 -2 540 c-1 297 -4 1193 -7 1990 -2 798 -5 1452 -6
1455 -1 3 -1 10 0 15 7 25 5 95 -3 95 -4 0 -5 5 -1 12 10 16 11 228 1 228 -5
0 -5 5 -1 12 10 16 11 118 1 118 -5 0 -5 6 0 13 10 16 10 37 1 65 -4 12 -4 22
0 22 6 0 8 74 1 90 -1 3 0 10 1 15 4 22 1 226 -5 235 -3 5 -1 11 5 15 7 4 7
12 0 26 -8 14 -7 19 1 19 9 0 9 3 0 14 -8 10 -9 16 -1 21 7 4 7 12 0 25 -7 13
-7 21 0 25 7 4 7 12 0 25 -6 12 -7 21 0 25 5 3 7 12 4 19 -8 20 -10 836 -2
836 4 0 17 -15 30 -32 12 -18 26 -37 30 -43 13 -16 61 -81 83 -111 39 -54 74
-99 89 -116 9 -10 16 -20 16 -23 0 -3 18 -29 40 -58 23 -29 48 -62 58 -75 9
-12 22 -28 27 -35 6 -6 21 -29 35 -49 14 -21 28 -38 33 -38 4 0 7 -4 7 -10 0
-9 19 -35 48 -65 6 -8 12 -17 12 -21 0 -4 7 -14 15 -23 13 -13 290 -383 345
-461 8 -11 67 -90 130 -175 63 -84 122 -163 130 -176 8 -12 20 -27 25 -33 6
-6 22 -27 35 -46 13 -19 32 -44 42 -54 10 -11 18 -26 18 -33 0 -7 4 -13 8 -13
5 0 24 -21 42 -47 19 -27 38 -49 42 -51 4 -2 8 -8 8 -14 0 -5 6 -15 13 -23 28
-30 47 -56 47 -65 0 -6 4 -10 8 -10 4 0 15 -12 24 -27 9 -16 24 -37 33 -48 9
-11 61 -81 116 -155 55 -74 109 -145 120 -158 10 -12 19 -26 19 -31 0 -5 4
-11 8 -13 4 -2 23 -25 42 -53 19 -27 41 -54 48 -58 6 -4 12 -14 12 -22 0 -7 3
-15 8 -17 4 -2 31 -34 60 -73 29 -38 59 -79 67 -90 9 -11 35 -47 60 -80 61
-84 97 -131 118 -156 9 -12 17 -25 17 -28 0 -3 14 -21 30 -40 17 -18 30 -37
30 -40 0 -3 16 -24 35 -46 19 -22 35 -43 35 -47 0 -4 6 -13 13 -20 7 -7 24
-29 37 -48 14 -19 30 -42 37 -50 7 -8 47 -62 90 -120 42 -58 80 -107 83 -110
3 -3 16 -22 30 -42 14 -21 28 -38 33 -38 4 0 7 -7 7 -15 0 -8 3 -15 8 -15 4 0
18 -18 32 -40 14 -22 28 -40 32 -40 5 0 8 -5 8 -11 0 -7 8 -19 18 -28 9 -9 33
-38 51 -66 19 -27 37 -52 41 -55 3 -3 16 -22 30 -42 14 -21 29 -38 33 -38 5 0
5 -4 2 -10 -3 -5 -2 -10 4 -10 5 0 18 -15 30 -32 11 -18 29 -43 41 -55 11 -13
18 -23 15 -23 -3 0 8 -15 24 -32 17 -18 31 -37 31 -41 0 -4 13 -22 30 -40 16
-18 30 -38 30 -44 0 -7 3 -13 8 -13 4 0 18 -17 32 -38 14 -20 35 -48 48 -62
12 -14 22 -28 22 -32 0 -3 6 -13 13 -20 7 -7 37 -47 67 -88 30 -41 58 -79 63
-85 28 -35 206 -276 214 -290 12 -21 12 -22 107 105 27 36 91 119 141 185 50
66 122 161 159 210 37 50 73 97 79 105 7 8 13 19 14 24 1 5 5 12 10 15 5 3 22
24 38 46 17 22 32 42 36 45 3 3 34 43 69 90 35 47 68 90 72 95 5 6 39 51 76
100 37 50 73 94 79 98 7 4 13 13 13 18 0 11 70 102 82 107 5 2 8 10 8 18 0 8
5 14 10 14 6 0 10 5 10 10 0 6 8 18 18 28 9 10 26 30 37 46 11 15 31 43 45 60
14 18 34 45 45 60 11 15 27 36 35 46 8 10 24 31 35 46 20 28 68 91 83 109 4 6
28 37 52 70 25 33 55 71 67 85 13 14 23 28 23 32 0 7 17 30 45 62 6 6 28 36
50 66 21 30 45 62 53 70 7 8 31 40 54 70 22 30 49 66 59 80 26 32 206 272 317
420 47 63 89 117 92 120 3 3 17 21 30 40 13 19 29 40 35 46 5 7 18 22 27 35 9
13 72 96 139 184 67 88 142 188 167 223 25 34 49 62 54 62 4 0 8 5 8 11 0 5
25 41 55 79 30 38 55 73 55 79 0 5 3 11 8 13 4 2 30 32 57 68 28 36 53 67 57
68 5 2 8 10 8 17 0 7 4 15 8 17 5 2 28 30 53 63 46 63 57 78 74 98 6 7 30 39
55 72 25 33 49 63 55 67 5 4 10 11 10 15 0 4 18 31 40 59 22 27 49 63 60 78
11 16 29 37 39 47 11 11 17 19 13 19 -6 0 20 34 51 66 6 7 12 17 12 23 0 6 5
11 10 11 6 0 10 7 10 15 0 8 6 15 14 15 8 0 17 8 21 19 4 14 56 88 103 146 4
6 48 64 98 129 104 139 102 140 94 -55 -3 -66 -1 -119 3 -119 5 0 5 -6 0 -12
-12 -20 -10 -1328 2 -1328 7 0 7 -3 0 -8 -12 -8 -14 -72 -2 -72 4 0 5 -5 1
-12 -5 -7 -7 -28 -7 -48 5 -136 3 -471 -2 -480 -3 -5 -3 -10 2 -10 4 0 8 -13
8 -30 0 -16 -4 -30 -8 -30 -5 0 -5 -5 -2 -11 4 -5 8 -625 10 -1377 1 -752 4
-1371 5 -1377 1 -5 1 -14 0 -20 -5 -24 -1 -146 6 -157 4 -6 3 -8 -2 -5 -11 6
-9 -126 1 -143 3 -6 2 -10 -2 -10 -10 0 -9 -53 2 -69 3 -6 3 -11 -2 -11 -4 0
-8 -11 -8 -25 0 -14 4 -25 8 -25 4 0 4 -8 -1 -17 -5 -10 -8 -27 -6 -38 6 -37
7 -196 1 -201 -3 -3 -2 -16 3 -29 5 -14 5 -26 -2 -33 -11 -11 64 -88 378 -387
69 -66 161 -154 204 -195 43 -41 136 -129 205 -195 70 -66 162 -154 205 -195
43 -41 149 -142 236 -225 86 -82 183 -175 214 -205 31 -30 130 -125 219 -210
90 -85 189 -180 221 -210 32 -30 131 -125 221 -210 89 -85 188 -180 220 -210
31 -30 118 -113 193 -185 75 -71 187 -178 248 -237 61 -60 112 -108 113 -108
1 0 31 -28 67 -62 157 -150 337 -323 473 -453 81 -77 178 -170 216 -207 38
-38 72 -68 74 -68 3 0 5 2509 5 5575 0 3066 3 5575 8 5575 4 0 20 12 37 26 16
14 45 35 65 47 19 12 41 27 48 34 7 7 16 13 20 13 4 0 21 12 37 26 17 14 51
40 77 57 27 16 48 34 48 39 0 4 5 8 11 8 6 0 28 14 49 30 21 17 40 30 43 30 3
0 18 11 33 25 18 17 39 25 63 26 20 0 423 1 896 2 473 2 866 6 873 10 6 5 12
4 12 0 0 -10 240 -11 256 -1 6 4 14 5 18 1 11 -11 120 -9 128 2 5 7 8 7 8 -1
0 -6 20 -9 53 -7 71 5 69 5 100 0 15 -3 27 0 27 7 0 7 3 7 8 1 6 -9 56 -12 87
-5 17 3 69 2 91 -3 11 -3 27 -2 34 3 7 5 23 5 35 0 12 -5 28 -4 35 0 8 5 21 5
30 0 11 -6 21 -5 29 3 8 8 14 8 19 2 9 -13 42 -15 42 -3 0 7 5 7 13 0 8 -7 18
-7 27 -2 8 5 21 6 29 2 20 -9 53 -8 68 1 6 4 15 3 18 -3 5 -8 11 -7 21 1 11 9
17 9 28 0 10 -9 16 -9 21 -1 4 6 12 7 18 3 15 -10 38 -10 54 0 6 4 14 3 18 -3
4 -7 12 -7 25 0 13 7 21 7 25 0 5 -8 11 -8 20 0 9 7 15 8 19 1 4 -7 15 -7 31
-1 16 6 27 6 31 -1 3 -5 11 -6 17 -2 15 10 38 10 55 0 6 -5 12 -5 12 0 0 8 84
8 98 -1 4 -2 14 -1 22 4 9 5 19 5 27 -2 9 -7 13 -7 13 0 0 6 13 7 34 2 19 -4
37 -5 40 -2 10 9 90 8 104 -1 8 -6 12 -5 12 3 0 9 3 10 13 1 8 -6 16 -8 20 -5
11 11 117 11 117 0 0 -7 3 -8 8 -1 8 12 241 13 260 1 7 -4 12 -4 12 1 0 12
154 10 162 -2 5 -6 8 -6 8 0 0 6 44 10 112 9 l113 0 1 -511 c1 -282 5 -516 9
-522 3 -6 1 -11 -5 -11 -8 0 -8 -6 0 -20 8 -15 8 -20 -1 -20 -9 0 -9 -3 0 -14
8 -10 9 -16 1 -21 -7 -4 -7 -12 0 -26 8 -13 7 -19 0 -19 -7 0 -8 -7 -3 -17 4
-10 8 -382 8 -828 0 -528 3 -813 10 -817 7 -5 7 -8 0 -8 -6 0 -9 -43 -8 -112
1 -94 -2 -115 -15 -126 -9 -7 -55 -48 -102 -91 -134 -124 -142 -131 -152 -131
-5 0 -6 -4 -3 -10 3 -5 2 -10 -3 -10 -5 0 -25 -15 -44 -32 -19 -18 -72 -67
-118 -108 -110 -100 -136 -124 -194 -178 -36 -34 -58 -47 -80 -47 -18 -1 -37
-4 -44 -9 -7 -4 -12 -4 -12 1 0 4 -27 8 -60 8 -33 0 -60 -4 -60 -8 0 -5 -5 -5
-12 -1 -17 11 -149 12 -169 3 -9 -5 -19 -5 -23 -1 -7 7 -238 9 -1688 14 l-816
3 -29 -30 c-26 -26 -175 -165 -268 -249 -16 -15 -74 -69 -129 -119 -54 -51
-112 -104 -129 -119 l-30 -28 0 -545 c0 -387 -3 -545 -11 -545 -8 0 -8 -2 0
-8 15 -10 15 -322 0 -341 -7 -10 -7 -13 0 -8 7 4 11 -84 11 -299 0 -215 -3
-304 -11 -304 -8 0 -8 -2 0 -8 7 -4 11 -43 11 -101 l-1 -95 2112 -1 2112 -1
117 113 c64 62 117 113 118 113 1 0 65 62 142 138 78 75 219 211 313 302 95
91 209 201 255 245 45 44 103 99 128 123 26 23 44 42 40 42 -3 0 7 10 23 22
16 13 59 52 95 88 36 36 84 82 107 102 22 20 38 39 34 42 -3 3 -1 6 5 6 5 0
83 71 173 158 233 225 276 266 485 467 103 99 236 227 295 285 59 58 181 175
270 260 89 85 200 192 246 237 l84 83 0 3225 0 3225 -5892 0 -5893 -1 -50 -70
c-27 -39 -55 -76 -60 -82 -6 -7 -64 -84 -130 -172 -65 -88 -122 -161 -127
-163 -4 -2 -8 -10 -8 -18 0 -8 -4 -14 -10 -14 -5 0 -10 -6 -10 -14 0 -8 -4
-16 -9 -18 -5 -1 -39 -43 -75 -93 -36 -49 -72 -97 -79 -105 -7 -8 -74 -96
-147 -195 -74 -99 -138 -184 -143 -190 -4 -5 -33 -44 -63 -85 -77 -106 -97
-131 -111 -146 -7 -7 -13 -17 -13 -23 0 -6 -4 -11 -10 -11 -5 0 -10 -5 -10
-11 0 -7 -6 -17 -13 -23 -7 -6 -85 -108 -173 -226 -87 -118 -163 -220 -169
-227 -20 -25 -31 -39 -70 -93 -22 -30 -44 -60 -50 -66 -5 -6 -17 -22 -25 -34
-8 -12 -20 -28 -25 -34 -6 -6 -42 -54 -80 -106 -38 -52 -72 -97 -75 -100 -3
-3 -17 -21 -30 -40 -14 -19 -35 -46 -47 -60 -13 -14 -29 -37 -36 -52 -6 -16
-15 -28 -18 -28 -3 0 -21 -21 -39 -47 -19 -27 -37 -50 -40 -53 -3 -3 -23 -30
-45 -60 -22 -30 -44 -60 -50 -67 -18 -21 -28 -36 -100 -133 -38 -52 -78 -104
-87 -114 -10 -11 -20 -27 -23 -37 -3 -9 -12 -20 -20 -23 -8 -3 -15 -12 -15
-21 0 -8 -3 -15 -7 -15 -5 0 -19 -17 -33 -37 -14 -20 -30 -41 -35 -47 -6 -6
-21 -28 -35 -48 -14 -21 -28 -38 -32 -38 -5 0 -8 -5 -8 -11 0 -6 -6 -16 -12
-23 -15 -15 -21 -23 -154 -201 -53 -71 -100 -131 -105 -133 -5 -2 -9 -8 -9
-14 0 -6 -16 -30 -35 -54 -19 -23 -35 -45 -35 -48 0 -3 -8 -14 -17 -24 -24
-25 -44 -51 -64 -82 -9 -14 -25 -35 -35 -47 -11 -12 -28 -34 -39 -49 -45 -62
-95 -130 -102 -139 -5 -5 -20 -26 -33 -45 -14 -19 -28 -37 -31 -40 -3 -3 -25
-32 -49 -65 -24 -33 -48 -64 -53 -70 -4 -5 -40 -53 -79 -105 -38 -52 -74 -96
-79 -98 -5 -2 -9 -9 -9 -15 0 -7 -11 -24 -23 -38 -13 -13 -37 -44 -52 -67 -15
-23 -32 -42 -37 -42 -5 0 -7 -4 -4 -9 3 -5 -1 -14 -10 -22 -18 -15 -19 -14
-97 91 -31 41 -60 80 -65 85 -42 53 -204 268 -231 306 -18 27 -37 49 -42 49
-5 0 -9 6 -9 14 0 8 -3 16 -7 18 -5 2 -28 30 -53 63 -25 33 -48 62 -52 63 -5
2 -8 8 -8 13 0 8 -16 30 -45 63 -6 6 -64 83 -130 171 -66 88 -123 162 -126
165 -3 3 -41 52 -84 110 -44 58 -85 111 -92 118 -7 7 -13 16 -13 20 0 4 -14
23 -30 42 -40 47 -38 45 -105 135 -32 44 -62 82 -67 83 -4 2 -8 8 -8 13 0 11
-15 31 -42 57 -10 9 -18 20 -18 24 0 7 -27 42 -56 72 -6 6 -19 24 -30 41 -20
32 -20 32 -88 117 -25 31 -46 61 -46 66 0 6 -4 12 -9 14 -5 2 -53 62 -107 133
-54 72 -102 135 -106 140 -5 6 -27 35 -49 65 -23 30 -54 71 -69 90 -15 19 -46
60 -69 90 -22 30 -44 60 -48 65 -5 6 -20 26 -33 45 -14 19 -32 42 -40 50 -8 8
-28 34 -44 58 -16 23 -33 42 -38 42 -5 0 -6 5 -3 10 3 6 -1 13 -9 16 -9 3 -16
10 -16 15 0 5 -7 17 -15 27 -43 48 -105 132 -105 141 0 6 -4 11 -8 11 -5 0
-24 21 -42 48 -19 26 -36 49 -40 52 -3 3 -32 41 -64 85 -33 44 -65 87 -73 95
-15 17 -72 94 -88 119 -5 9 -13 18 -16 21 -3 3 -25 32 -50 65 -50 67 -76 100
-102 127 -9 10 -17 21 -17 26 0 4 -10 19 -23 34 -13 15 -32 39 -43 53 -10 15
-39 52 -63 83 -24 32 -82 109 -129 172 -48 63 -89 117 -92 120 -3 3 -47 61
-99 130 -52 69 -98 127 -103 128 -4 2 -8 8 -8 13 0 8 -22 37 -106 142 -8 9
-14 21 -14 26 0 5 -3 11 -7 13 -14 5 -83 96 -83 107 0 8 -547 11 -1910 11
l-1910 0 0 -7180z"/>
</g>
</svg>
